<?xml version="1.0" encoding="UTF-8"?>
<svg id="Layer_3" xmlns="http://www.w3.org/2000/svg" viewBox="0 0 800 800">
  <defs>
    <style>
      .cls-1 {
        fill: #ffffff;
      }
    </style>
  </defs>
  <path class="cls-1" d="M798.61,134.4c-88.06-12.37-190.28-21.11-303.99-20.72-107.76.37-205.01,8.86-289.46,20.72C139.7,314.27,74.24,494.13,8.79,674c60.07-.02,120.14-.04,180.21-.06,27.26-74.84,54.53-149.69,81.79-224.53,107.78-20.54,140.16-11.69,146.72,2.83,6.2,13.73-10.52,32.9-11.23,33.7-18.54,20.79-55.12,24.83-91.72,8.06l-65.51,180c176.23,49.6,331.14,6.35,374.25-81.85,13.54-27.7,25.64-79.44,12.26-131.74-20.77-81.17-89.46-111.1-75.63-146,11.32-28.57,66.85-32.41,91.48-31.33,42.32,1.84,71.43,23.05,81.7,31.33l65.5-180ZM421.68,266.79c-15.4,32.29-12.86,61.86-11.23,73.53-10.9-3.81-27.33-8.1-47.57-8.09-26.75.02-47.55,7.55-59.32,12.87,16.31-44.8,32.61-75.3,48.92-120.1,16.51-3.63,35.87-6.77,57.61-8.24,19.98-1.35,38.11-1.04,53.9.07-9.71,6.83-29.21,22.51-42.3,49.96Z"/>
</svg>