<?xml version="1.0" encoding="UTF-8"?>
<svg id="RIQO" xmlns="http://www.w3.org/2000/svg" viewBox="0 0 635.04 226.56">
  <defs>
    <style>
      .cls-1 {
        fill: #8fd968;
      }
    </style>
  </defs>
  <g id="lime">
    <path class="cls-1" d="M595.23,55.33c-.61-1.96-1.45-3.81-2.5-5.53-1.04-1.72-2.29-3.3-3.7-4.71-.85-.85-1.76-1.64-2.72-2.36-.32-.24-.65-.47-.98-.7-2.99-2.02-6.45-3.41-10.17-3.98-1.24-.19-2.51-.29-3.81-.29h-104.74c-13.81,0-25,11.19-25,25v101.04h0c0,3.45.7,6.74,1.96,9.73.47,1.12,1.03,2.2,1.65,3.23s1.33,2.01,2.09,2.94c.25.31.52.61.79.91,2.42,2.66,5.41,4.8,8.77,6.23.37.16.75.31,1.14.45,2.68.98,5.58,1.52,8.6,1.52h104.74c3.02,0,5.92-.54,8.6-1.52-.77.28-1.55.52-2.35.73-.8.21-1.61.37-2.44.5.83-.13,1.64-.29,2.44-.5.8-.21,1.58-.45,2.35-.73,1.91-.7,3.72-1.63,5.38-2.75-.67.45-1.35.87-2.06,1.25,2.48-1.35,4.71-3.1,6.59-5.17.27-.3.53-.6.79-.91.76-.93,1.46-1.91,2.09-2.94,1.04-1.72,1.89-3.57,2.5-5.53.73-2.35,1.12-4.85,1.12-7.43h0V62.76c0-2.59-.39-5.09-1.12-7.43ZM476.86,97.17c0-13.81,11.19-25,25-25h34.24c13.81,0,25,11.19,25,25v32.23c0,13.81-11.19,25-25,25h-34.24c-13.81,0-25-11.19-25-25v-32.23ZM586.31,183.84c.96-.72,1.87-1.51,2.72-2.36-.85.85-1.76,1.64-2.72,2.36Z"/>
    <path class="cls-1" d="M397.26,37.76h-104.75c-13.8,0-25,11.19-25,25v101.04c0,13.81,11.2,25,25,25h104.75c11.56,0,21.28-7.84,24.14-18.49.56-2.08.86-4.26.86-6.51V62.76c0-13.81-11.19-25-25-25ZM387.01,117.39h-38.69l19.6,36.29.39.71h-40.55c-13.8,0-25-11.19-25-25v-32.22c0-12.55,9.24-22.93,21.28-24.72,1.22-.19,2.46-.28,3.72-.28h34.25c2.39,0,4.7.34,6.89.97,10.45,2.98,18.11,12.61,18.11,24.03v20.22Z"/>
    <rect class="cls-1" x="205.17" y="37.76" width="43" height="151.04"/>
    <path class="cls-1" d="M185.7,182.29l-20.71-38.34c11.76-2.02,20.71-12.27,20.71-24.62v-56.57c0-13.81-11.2-25-25-25H38.69v151.04h38.68v-44.47h43.33l24.03,44.47h44.49l-3.52-6.51ZM150.45,99.93c0,3.56-1.87,6.69-4.68,8.46-1.54.98-3.36,1.54-5.32,1.54h-63.08v-37.76h63.08c5.52,0,10,4.47,10,10v17.76Z"/>
  </g>
</svg>